<svg xmlns="http://www.w3.org/2000/svg" viewBox="0 0 512 512">
  <defs>
    <clipPath id="circle">
      <circle cx="256" cy="256" r="256" />
    </clipPath>
  </defs>
  <g clip-path="url(#circle)">
    <!-- Base white -->
    <rect width="512" height="512" fill="#ffffff" />
    <!-- Red stripes -->
    <rect x="0" y="0" width="512" height="39" fill="#b22234" />
    <rect x="0" y="79" width="512" height="39" fill="#b22234" />
    <rect x="0" y="158" width="512" height="39" fill="#b22234" />
    <rect x="0" y="237" width="512" height="39" fill="#b22234" />
    <rect x="0" y="316" width="512" height="39" fill="#b22234" />
    <rect x="0" y="395" width="512" height="39" fill="#b22234" />
    <rect x="0" y="474" width="512" height="39" fill="#b22234" />
    <!-- Blue canton -->
    <rect x="0" y="0" width="205" height="275" fill="#3c3b6e" />
    <!-- Simplified stars -->
    <g fill="#ffffff">
      <circle cx="25" cy="25" r="6" />
      <circle cx="55" cy="40" r="6" />
      <circle cx="85" cy="25" r="6" />
      <circle cx="115" cy="40" r="6" />
      <circle cx="145" cy="25" r="6" />
      <circle cx="175" cy="40" r="6" />

      <circle cx="25" cy="75" r="6" />
      <circle cx="55" cy="90" r="6" />
      <circle cx="85" cy="75" r="6" />
      <circle cx="115" cy="90" r="6" />
      <circle cx="145" cy="75" r="6" />
      <circle cx="175" cy="90" r="6" />

      <circle cx="25" cy="125" r="6" />
      <circle cx="55" cy="140" r="6" />
      <circle cx="85" cy="125" r="6" />
      <circle cx="115" cy="140" r="6" />
      <circle cx="145" cy="125" r="6" />
      <circle cx="175" cy="140" r="6" />
    </g>
  </g>
</svg>